<svg width="20" height="32" viewBox="0 0 20 32" fill="none" xmlns="http://www.w3.org/2000/svg">
<path d="M18.473 5.78225C17.7644 2.80892 15.9894 0.39178 15.7447 0C15.3539 0.552689 13.9405 2.68649 13.221 5.05116C12.4357 7.69217 12.3189 10.0359 12.5891 12.3411C12.8594 14.6463 13.8784 17.0109 13.8784 17.0109C14.4189 18.2527 15.2298 19.5855 15.7557 20.2396C16.53 19.2777 18.305 16.4128 18.8601 12.6629C19.1669 10.5781 19.1815 8.75557 18.4766 5.78225M15.7484 19.498C15.4014 18.8684 14.8609 17.6756 14.8061 15.8251C14.7915 14.0411 15.5402 12.5125 15.7557 12.1906C15.9529 12.509 16.5957 13.8382 16.6724 15.6677C16.7235 17.4552 16.1063 18.8579 15.7484 19.498M18.2721 10.8229C18.2429 11.9598 18.1005 13.1526 17.9215 13.8662C17.9872 12.6349 17.8338 10.8929 17.538 9.53914C17.2422 8.1819 16.4021 5.91517 15.7338 4.86576C15.1165 5.8662 14.3569 7.8251 13.9588 9.52164C13.557 11.2287 13.546 13.282 13.546 13.9047C13.4401 13.3835 13.1735 11.5295 13.2502 9.66507C13.3123 8.12243 13.6885 6.54132 13.8967 5.81723C14.6783 3.3861 15.5694 1.83647 15.7338 1.58811C15.9018 1.83647 17.023 3.7429 17.6037 5.75427C18.1808 7.76214 18.3013 9.68256 18.2758 10.8194" fill="#0071BA"/>
<path d="M16.943 20.9287H11.5595V24.3883C11.5595 24.3883 11.5668 24.3813 11.5741 24.3778C12.8415 23.1605 14.9014 23.1605 16.1687 24.3778C17.4397 25.5916 17.4397 27.5645 16.1687 28.7748C16.1687 28.7818 16.1614 28.7888 16.1541 28.7923C16.1541 28.7923 16.1395 28.7993 16.1359 28.8063C14.8722 30.0166 13.2177 30.6148 11.5595 30.6148C9.90139 30.6148 8.23594 30.0096 6.96859 28.7923C4.72973 26.6515 4.46676 23.3424 6.17239 20.9252C6.39883 20.5999 6.66545 20.2886 6.96859 20.0018C8.23229 18.7879 9.89408 18.1828 11.5595 18.1828V9.86096C5.17166 9.86096 0 14.8177 0 20.9287C0 27.0398 5.17166 32 11.5595 32C14.8904 32 17.8853 30.6533 20 28.495V20.9287H16.943V20.9287Z" fill="#0071BA"/>
</svg>
